<svg width="16" height="16" viewBox="0 0 16 16" fill="none" xmlns="http://www.w3.org/2000/svg">
<path d="M10.6666 14V3.33333C10.6666 2.97971 10.5262 2.64057 10.2761 2.39052C10.0261 2.14048 9.68694 2 9.33331 2H6.66665C6.31302 2 5.97389 2.14048 5.72384 2.39052C5.47379 2.64057 5.33331 2.97971 5.33331 3.33333V14M2.66665 4.66667H13.3333C14.0697 4.66667 14.6666 5.26362 14.6666 6V12.6667C14.6666 13.403 14.0697 14 13.3333 14H2.66665C1.93027 14 1.33331 13.403 1.33331 12.6667V6C1.33331 5.26362 1.93027 4.66667 2.66665 4.66667Z" stroke="#F5F5F5" stroke-width="1.6" stroke-linecap="round" stroke-linejoin="round"/>
</svg>
