<svg width="15" height="16" viewBox="0 0 15 16" fill="none" xmlns="http://www.w3.org/2000/svg">
<path d="M3.49998 6.00004V1.33337H11.5V6.00004M3.49998 12H2.16665C1.81302 12 1.47389 11.8596 1.22384 11.6095C0.973789 11.3595 0.833313 11.0203 0.833313 10.6667V7.33337C0.833313 6.97975 0.973789 6.64061 1.22384 6.39057C1.47389 6.14052 1.81302 6.00004 2.16665 6.00004H12.8333C13.1869 6.00004 13.5261 6.14052 13.7761 6.39057C14.0262 6.64061 14.1666 6.97975 14.1666 7.33337V10.6667C14.1666 11.0203 14.0262 11.3595 13.7761 11.6095C13.5261 11.8596 13.1869 12 12.8333 12H11.5M3.49998 9.33337H11.5V14.6667H3.49998V9.33337Z" stroke="#F5F5F5" stroke-width="1.6" stroke-linecap="round" stroke-linejoin="round"/>
</svg>
