<svg width="16" height="16" viewBox="0 0 16 16" fill="none" xmlns="http://www.w3.org/2000/svg">
<path d="M0.666626 0.666656H3.33329L5.11996 9.59332C5.18092 9.90025 5.3479 10.176 5.59166 10.3722C5.83541 10.5684 6.14042 10.6727 6.45329 10.6667H12.9333C13.2462 10.6727 13.5512 10.5684 13.7949 10.3722C14.0387 10.176 14.2057 9.90025 14.2666 9.59332L15.3333 3.99999H3.99996M6.66663 14C6.66663 14.3682 6.36815 14.6667 5.99996 14.6667C5.63177 14.6667 5.33329 14.3682 5.33329 14C5.33329 13.6318 5.63177 13.3333 5.99996 13.3333C6.36815 13.3333 6.66663 13.6318 6.66663 14ZM14 14C14 14.3682 13.7015 14.6667 13.3333 14.6667C12.9651 14.6667 12.6666 14.3682 12.6666 14C12.6666 13.6318 12.9651 13.3333 13.3333 13.3333C13.7015 13.3333 14 13.6318 14 14Z" stroke="#F5F5F5" stroke-width="1.6" stroke-linecap="round" stroke-linejoin="round"/>
</svg>
